<?xml version="1.0" encoding="UTF-8" standalone="no"?>
<svg
   xmlns:dc="http://purl.org/dc/elements/1.1/"
   xmlns:cc="http://creativecommons.org/ns#"
   xmlns:rdf="http://www.w3.org/1999/02/22-rdf-syntax-ns#"
   xmlns:svg="http://www.w3.org/2000/svg"
   xmlns="http://www.w3.org/2000/svg"
   xmlns:sodipodi="http://sodipodi.sourceforge.net/DTD/sodipodi-0.dtd"
   xmlns:inkscape="http://www.inkscape.org/namespaces/inkscape"
   width="150"
   height="55"
   viewBox="0 0 150 55"
   version="1.1"
   id="svg6"
   sodipodi:docname="anywhite.svg"
   inkscape:version="0.92.3 (2405546, 2018-03-11)"
   style="fill:none">
  <metadata
     id="metadata12">
    <rdf:RDF>
      <cc:Work
         rdf:about="">
        <dc:format>image/svg+xml</dc:format>
        <dc:type
           rdf:resource="http://purl.org/dc/dcmitype/StillImage" />
        <dc:title></dc:title>
      </cc:Work>
    </rdf:RDF>
  </metadata>
  <defs
     id="defs10" />
  <sodipodi:namedview
     pagecolor="#ffffff"
     bordercolor="#666666"
     borderopacity="1"
     objecttolerance="10"
     gridtolerance="10"
     guidetolerance="10"
     inkscape:pageopacity="0"
     inkscape:pageshadow="2"
     inkscape:window-width="1920"
     inkscape:window-height="1018"
     id="namedview8"
     showgrid="false"
     inkscape:zoom="0.89028213"
     inkscape:cx="159.5"
     inkscape:cy="47.5"
     inkscape:window-x="-8"
     inkscape:window-y="-8"
     inkscape:window-maximized="1"
     inkscape:current-layer="svg6" />
  <path
     d="m 42.515648,18.887134 c 1.347607,0 2.558453,0.29295 3.632576,0.878848 1.074157,0.585899 1.913964,1.440349 2.519407,2.563308 0.605396,1.122959 0.908104,2.475423 0.908104,4.05735 v 7.206557 c 0,0.429673 -0.14158,0.786068 -0.424781,1.069266 -0.283155,0.283198 -0.639592,0.424777 -1.069266,0.424777 -0.429633,0 -0.786064,-0.141579 -1.069265,-0.424777 -0.283154,-0.283198 -0.424775,-0.639593 -0.424775,-1.069266 V 26.38664 c 0,-1.581927 -0.424735,-2.778123 -1.274332,-3.588631 -0.849557,-0.810507 -1.977369,-1.21574 -3.383567,-1.21574 -0.820259,0 -1.567237,0.166018 -2.241064,0.498014 -0.673783,0.331995 -1.201051,0.781213 -1.581927,1.347567 -0.380834,0.566355 -0.571251,1.201094 -0.571251,1.904172 v 8.261175 c 0,0.429673 -0.136682,0.786068 -0.410129,1.069266 -0.273406,0.283198 -0.634696,0.424777 -1.083914,0.424777 -0.42963,0 -0.786066,-0.141579 -1.069265,-0.424777 -0.283156,-0.283198 -0.424776,-0.639593 -0.424776,-1.069266 V 20.527651 c 0,-0.449175 0.14162,-0.810508 0.424776,-1.083913 0.283199,-0.273406 0.639635,-0.410129 1.069265,-0.410129 0.449218,0 0.810508,0.136723 1.083914,0.410129 0.273447,0.273405 0.410129,0.634738 0.410129,1.083913 v 0.322244 c 0.624987,-0.624945 1.367112,-1.108311 2.226416,-1.4501 0.859346,-0.341788 1.777241,-0.512661 2.753725,-0.512661 z m 24.256214,0.29295 c 0.60557,0.234359 0.90814,0.615193 0.90814,1.142502 0,0.195314 -0.0586,0.429673 -0.17576,0.703079 l -8.96426,20.154924 c -0.23435,0.605443 -0.615191,0.908143 -1.142499,0.908143 -0.195438,0 -0.429801,-0.05859 -0.703078,-0.17577 -0.585903,-0.253903 -0.878854,-0.634737 -0.878854,-1.142503 0,-0.234359 0.05859,-0.468719 0.175776,-0.703078 l 2.929495,-6.591364 -6.59137,-12.508942 c -0.09763,-0.175769 -0.146472,-0.380834 -0.146472,-0.615194 0,-0.253903 0.07814,-0.488263 0.234364,-0.703079 0.156263,-0.214815 0.361329,-0.380834 0.615193,-0.498014 0.175769,-0.07813 0.371207,-0.117179 0.585896,-0.117179 0.546983,0 0.95711,0.273405 1.230386,0.820259 l 5.360973,10.66336 4.71649,-10.634066 c 0.25404,-0.566355 0.63487,-0.849553 1.14251,-0.849553 0.25402,0 0.48838,0.04884 0.70307,0.146475 z m 5.03873,-7.001493 c 0.4298,0 0.78594,0.136724 1.06927,0.410129 0.28332,0.273406 0.42477,0.634738 0.42477,1.083913 v 7.909636 c 0.68342,-0.839803 1.51372,-1.494042 2.49008,-1.962762 0.97635,-0.468719 2.03097,-0.703078 3.16385,-0.703078 1.40616,0 2.68048,0.351539 3.82299,1.054618 1.1425,0.703078 2.04102,1.674708 2.69514,2.914847 0.6541,1.240139 0.98137,2.621898 0.98137,4.145235 0,1.523338 -0.35154,2.905097 -1.05461,4.145235 -0.70308,1.240181 -1.67484,2.216665 -2.91485,2.929494 -1.24001,0.71283 -2.61227,1.069266 -4.11595,1.069266 -1.50366,0 -2.86588,-0.356436 -4.08663,-1.069266 -1.22077,-0.712829 -2.1875,-1.689313 -2.90021,-2.929494 -0.7127,-1.240138 -1.06926,-2.621897 -1.06926,-4.145235 V 13.672633 c 0,-0.449175 0.13685,-0.810507 0.41013,-1.083913 0.27328,-0.273405 0.63486,-0.410129 1.08391,-0.410129 z m 6.56206,20.359988 c 0.97637,0 1.86024,-0.239256 2.6512,-0.717726 0.79096,-0.47847 1.41579,-1.137606 1.87488,-1.977409 0.4591,-0.839802 0.68843,-1.777241 0.68843,-2.812315 0,-1.035074 -0.22933,-1.967658 -0.68843,-2.797667 -0.45909,-0.83001 -1.08392,-1.484291 -1.87488,-1.962762 -0.79096,-0.47847 -1.67483,-0.717726 -2.6512,-0.717726 -0.97635,0 -1.86022,0.239256 -2.65119,0.717726 -0.79096,0.478471 -1.41117,1.132752 -1.86022,1.962762 -0.44905,0.830009 -0.67378,1.762593 -0.67378,2.797667 0,1.035074 0.22473,1.972513 0.67378,2.812315 0.44905,0.839803 1.06926,1.498939 1.86022,1.977409 0.79097,0.47847 1.67484,0.717726 2.65119,0.717726 z m 19.80339,-13.62215 c 1.54301,0 2.924478,0.346643 4.145238,1.039971 1.22076,0.693327 2.17745,1.655164 2.8709,2.885552 0.69346,1.230387 1.03997,2.636545 1.03997,4.218472 0,1.562425 -0.34191,2.95879 -1.02532,4.189178 -0.68341,1.230388 -1.6355,2.192224 -2.85625,2.885552 -1.22077,0.693327 -2.612278,1.03997 -4.174538,1.03997 -1.56225,0 -2.95879,-0.346643 -4.18917,-1.03997 -1.23039,-0.693328 -2.1875,-1.655164 -2.87091,-2.885552 -0.68341,-1.230388 -1.02532,-2.626753 -1.02532,-4.189178 0,-1.581927 0.34191,-2.988085 1.02532,-4.218472 0.68341,-1.230388 1.64052,-2.192225 2.87091,-2.885552 1.23038,-0.693328 2.62692,-1.039971 4.18917,-1.039971 z m 0,2.636545 c -0.99603,0 -1.88952,0.23436 -2.68049,0.703078 -0.79096,0.46872 -1.41117,1.12296 -1.86022,1.962762 -0.44906,0.839803 -0.67378,1.786992 -0.67378,2.84161 0,1.054618 0.22472,1.996953 0.67378,2.826963 0.44905,0.830009 1.06926,1.479394 1.86022,1.948114 0.79097,0.468718 1.68446,0.703078 2.68049,0.703078 0.99603,0 1.889528,-0.23436 2.680488,-0.703078 0.79097,-0.46872 1.40616,-1.118105 1.84559,-1.948114 0.43942,-0.83001 0.65913,-1.772345 0.65913,-2.826963 0,-1.054618 -0.21971,-2.001807 -0.65913,-2.84161 -0.43943,-0.839802 -1.05462,-1.494042 -1.84559,-1.962762 -0.79096,-0.468718 -1.684458,-0.703078 -2.680488,-0.703078 z M 124.5122,12.178591 c 0.44905,0 0.81063,0.136724 1.08391,0.410129 0.27328,0.273406 0.41013,0.634738 0.41013,1.083913 v 13.358496 c 0,1.523338 -0.35655,2.905097 -1.06926,4.145235 -0.71271,1.240181 -1.67944,2.216665 -2.9002,2.929494 -1.22076,0.71283 -2.58298,1.069266 -4.08665,1.069266 -1.50367,0 -2.87593,-0.356436 -4.11594,-1.069266 -1.24001,-0.712829 -2.21177,-1.689313 -2.91484,-2.929494 -0.70308,-1.240138 -1.05462,-2.621897 -1.05462,-4.145235 0,-1.523337 0.32726,-2.905096 0.98138,-4.145235 0.65411,-1.240139 1.55263,-2.211769 2.69513,-2.914847 1.14251,-0.703079 2.41683,-1.054618 3.823,-1.054618 1.13287,0 2.18749,0.234359 3.16385,0.703078 0.97635,0.46872 1.80666,1.122959 2.49007,1.962762 v -7.909636 c 0,-0.449175 0.14145,-0.810507 0.42477,-1.083913 0.28332,-0.273405 0.63947,-0.410129 1.06927,-0.410129 z m -6.56207,20.359988 c 0.97636,0 1.86023,-0.239256 2.6512,-0.717726 0.79096,-0.47847 1.41118,-1.137606 1.86023,-1.977409 0.44904,-0.839802 0.67378,-1.777241 0.67378,-2.812315 0,-1.035074 -0.22474,-1.967658 -0.67378,-2.797667 -0.44905,-0.83001 -1.06927,-1.484291 -1.86023,-1.962762 -0.79097,-0.47847 -1.67484,-0.717726 -2.6512,-0.717726 -0.97636,0 -1.86022,0.239256 -2.65119,0.717726 -0.79096,0.478471 -1.41578,1.132752 -1.87487,1.962762 -0.4591,0.830009 -0.68844,1.762593 -0.68844,2.797667 0,1.035074 0.22934,1.972513 0.68844,2.812315 0.45909,0.839803 1.08391,1.498939 1.87487,1.977409 0.79097,0.47847 1.67483,0.717726 2.65119,0.717726 z m 25.57449,-13.358495 c 0.60557,0.234359 0.90815,0.615193 0.90815,1.142502 0,0.195314 -0.0586,0.429673 -0.17577,0.703079 l -8.96426,20.154924 c -0.23435,0.605443 -0.61519,0.908143 -1.14251,0.908143 -0.19543,0 -0.42979,-0.05859 -0.70307,-0.17577 -0.5859,-0.253903 -0.87885,-0.634737 -0.87885,-1.142503 0,-0.234359 0.0586,-0.468719 0.17578,-0.703078 l 2.92949,-6.591364 -6.59137,-12.508942 c -0.0975,-0.175769 -0.14647,-0.380834 -0.14647,-0.615194 0,-0.253903 0.0783,-0.488263 0.23436,-0.703079 0.1561,-0.214815 0.36116,-0.380834 0.61519,-0.498014 0.17577,-0.07813 0.37121,-0.117179 0.5859,-0.117179 0.54698,0 0.95711,0.273405 1.23039,0.820259 l 5.36097,10.66336 4.71649,-10.634066 c 0.25403,-0.566355 0.63486,-0.849553 1.14251,-0.849553 0.25402,0 0.48838,0.04884 0.70307,0.146475 z"
     id="path2"
     style="clip-rule:evenodd;fill:#ffffff;fill-rule:evenodd;stroke-width:0.41849923"
     inkscape:connector-curvature="0" />
  <path
     d="M 31.073837,35.350476 C 30.756447,30.476382 26.064987,15.38848 21.056179,15.38848 c -5.008808,0 -10.677477,15.464761 -10.017629,19.961996 0.186659,1.272154 1.741426,0.120569 3.87144,-1.457089 2.400955,-1.778371 5.532794,-4.098112 8.260028,-4.098112 3.40989,0 5.828481,3.322884 7.034345,4.979597 0.614147,0.843819 0.913709,1.255372 0.869474,0.575604 z m -4.138456,-9.812343 c 0,1.83039 -1.483789,3.314179 -3.314179,3.314179 -1.830348,0 -3.314179,-1.483789 -3.314179,-3.314179 0,-1.830348 1.483831,-3.314179 3.314179,-3.314179 1.83039,0 3.314179,1.483831 3.314179,3.314179 z"
     id="path4"
     style="clip-rule:evenodd;fill:#ffffff;fill-rule:evenodd;stroke-width:0.41849923"
     inkscape:connector-curvature="0" />
</svg>
